<svg width="48" height="35" viewBox="0 0 48 35" fill="none" xmlns="http://www.w3.org/2000/svg">
<path d="M21 2.4127C17.8284 0.86717 14.2655 0 10.5 0C6.73452 0 3.17159 0.86717 0 2.4127V32.4127C3.17159 30.8672 6.73452 30 10.5 30C15.5058 30 20.1537 31.5326 24 34.154C27.8463 31.5326 32.4942 30 37.5 30C41.2655 30 44.8284 30.8672 48 32.4127V2.4127C44.8284 0.86717 41.2655 0 37.5 0C33.7345 0 30.1716 0.86717 27 2.4127V24C27 25.6569 25.6569 27 24 27C22.3431 27 21 25.6569 21 24V2.4127Z" fill="#7B7BCC"/>
</svg>
