<svg width="29" height="29" viewBox="0 0 29 29" fill="none" xmlns="http://www.w3.org/2000/svg">
<path fill-rule="evenodd" clip-rule="evenodd" d="M7.50001 0.5C6.53351 0.5 5.75001 1.2835 5.75001 2.25V4H4.00001C2.06701 4 0.5 5.567 0.5 7.5V25C0.5 26.933 2.06701 28.5 4.00001 28.5H25C26.933 28.5 28.5 26.933 28.5 25V7.5C28.5 5.567 26.933 4 25 4H23.25V2.25C23.25 1.2835 22.4665 0.5 21.5 0.5C20.5335 0.5 19.75 1.2835 19.75 2.25V4H9.25001V2.25C9.25001 1.2835 8.46651 0.5 7.50001 0.5ZM7.50001 9.25C6.53351 9.25 5.75001 10.0335 5.75001 11C5.75001 11.9665 6.53351 12.75 7.50001 12.75H21.5C22.4665 12.75 23.25 11.9665 23.25 11C23.25 10.0335 22.4665 9.25 21.5 9.25H7.50001Z" fill="#7B7BCC"/>
</svg>
