<svg width="40" height="37" viewBox="0 0 40 37" fill="none" xmlns="http://www.w3.org/2000/svg">
<path d="M5.125 5.83398V0.708984H8.54167V5.83398H13.6667V9.25065H8.54167V14.3757H5.125V9.25065H0V5.83398H5.125ZM10.25 16.084V10.959H15.375V5.83398H27.3333L30.4596 9.25065H35.875C37.7542 9.25065 39.2917 10.7882 39.2917 12.6673V33.1673C39.2917 35.0465 37.7542 36.584 35.875 36.584H8.54167C6.6625 36.584 5.125 35.0465 5.125 33.1673V16.084H10.25ZM22.2083 31.459C26.9233 31.459 30.75 27.6323 30.75 22.9173C30.75 18.2023 26.9233 14.3757 22.2083 14.3757C17.4933 14.3757 13.6667 18.2023 13.6667 22.9173C13.6667 27.6323 17.4933 31.459 22.2083 31.459ZM16.7417 22.9173C16.7417 25.9411 19.1846 28.384 22.2083 28.384C25.2321 28.384 27.675 25.9411 27.675 22.9173C27.675 19.8936 25.2321 17.4507 22.2083 17.4507C19.1846 17.4507 16.7417 19.8936 16.7417 22.9173Z" fill="#828282"/>
</svg>
