<svg width="28" height="32" viewBox="0 0 28 32" fill="none" xmlns="http://www.w3.org/2000/svg">
<path d="M14.0001 0C7.37264 0 2.00006 5.37258 2.00006 12V19.1716L0.585845 20.5858C0.013849 21.1578 -0.157263 22.018 0.152299 22.7654C0.461861 23.5127 1.19113 24 2.00006 24H26.0001C26.809 24 27.5383 23.5127 27.8478 22.7654C28.1574 22.018 27.9863 21.1578 27.4143 20.5858L26.0001 19.1716V12C26.0001 5.37258 20.6275 0 14.0001 0Z" fill="white"/>
<path d="M14 32C10.6863 32 8 29.3137 8 26H20C20 29.3137 17.3137 32 14 32Z" fill="#7B7BCC"/>
</svg>
