<svg width="28" height="28" viewBox="0 0 28 28" fill="none" xmlns="http://www.w3.org/2000/svg">
<path d="M0 2C0 0.895431 0.895431 0 2 0H26C27.1046 0 28 0.895431 28 2V6C28 7.10457 27.1046 8 26 8H2C0.895431 8 0 7.10457 0 6V2Z" fill="#7B7BCC"/>
<path d="M0 14C0 12.8954 0.895431 12 2 12H14C15.1046 12 16 12.8954 16 14V26C16 27.1046 15.1046 28 14 28H2C0.895431 28 0 27.1046 0 26V14Z" fill="#7B7BCC"/>
<path d="M22 12C20.8954 12 20 12.8954 20 14V26C20 27.1046 20.8954 28 22 28H26C27.1046 28 28 27.1046 28 26V14C28 12.8954 27.1046 12 26 12H22Z" fill="#7B7BCC"/>
</svg>
