<svg width="54" height="42" viewBox="0 0 54 42" fill="none" xmlns="http://www.w3.org/2000/svg">
<path d="M24 9C24 13.9706 19.9706 18 15 18C10.0294 18 6 13.9706 6 9C6 4.02944 10.0294 0 15 0C19.9706 0 24 4.02944 24 9Z" fill="#7B7BCC"/>
<path d="M48 9C48 13.9706 43.9706 18 39 18C34.0294 18 30 13.9706 30 9C30 4.02944 34.0294 0 39 0C43.9706 0 48 4.02944 48 9Z" fill="#7B7BCC"/>
<path d="M35.7874 42C35.9275 41.0202 36.0001 40.0186 36.0001 39C36.0001 34.0945 34.318 29.5818 31.4993 26.0072C33.7057 24.7306 36.2676 24 39.0001 24C47.2843 24 54.0001 30.7157 54.0001 39V42H35.7874Z" fill="#7B7BCC"/>
<path d="M15 24C23.2843 24 30 30.7157 30 39V42H0V39C0 30.7157 6.71573 24 15 24Z" fill="#7B7BCC"/>
</svg>
