<svg width="54" height="45" viewBox="0 0 54 45" fill="none" xmlns="http://www.w3.org/2000/svg">
<path d="M36 9.00001C36 13.9706 31.9705 18 27 18C22.0294 18 18 13.9706 18 9.00001C18 4.02945 22.0294 1.52588e-05 27 1.52588e-05C31.9705 1.52588e-05 36 4.02945 36 9.00001Z" fill="#FFFFFF"/>
<path d="M51 15C51 18.3137 48.3137 21 45 21C41.6863 21 39 18.3137 39 15C39 11.6863 41.6863 9.00001 45 9.00001C48.3137 9.00001 51 11.6863 51 15Z" fill="#FFFFFF"/>
<path d="M39 36C39 29.3726 33.6274 24 27 24C20.3726 24 15 29.3726 15 36V45H39V36Z" fill="#FFFFFF"/>
<path d="M15 15C15 18.3137 12.3137 21 8.99999 21C5.68629 21 3 18.3137 3 15C3 11.6863 5.68629 9.00001 8.99999 9.00001C12.3137 9.00001 15 11.6863 15 15Z" fill="#FFFFFF"/>
<path d="M45 45V36C45 32.8376 44.1844 29.8656 42.7522 27.283C43.4707 27.0982 44.2238 27 45 27C49.9705 27 54 31.0294 54 36V45H45Z" fill="#FFFFFF"/>
<path d="M11.2478 27.283C9.81554 29.8656 8.99999 32.8376 8.99999 36V45H0V36C0 31.0294 4.02943 27 8.99999 27C9.77612 27 10.5293 27.0982 11.2478 27.283Z" fill="#FFFFFF"/>
</svg>
