<svg width="32" height="28" viewBox="0 0 32 28" fill="none" xmlns="http://www.w3.org/2000/svg">
<path d="M0 16C0 14.8954 0.895431 14 2 14H6C7.10457 14 8 14.8954 8 16V26C8 27.1046 7.10457 28 6 28H2C0.895431 28 0 27.1046 0 26V16Z" fill="white"/>
<path d="M12 8C12 6.89543 12.8954 6 14 6H18C19.1046 6 20 6.89543 20 8V26C20 27.1046 19.1046 28 18 28H14C12.8954 28 12 27.1046 12 26V8Z" fill="white"/>
<path d="M24 2C24 0.895431 24.8954 0 26 0H30C31.1046 0 32 0.895431 32 2V26C32 27.1046 31.1046 28 30 28H26C24.8954 28 24 27.1046 24 26V2Z" fill="#7B7BCC"/>
</svg>
