<svg width="48" height="48" viewBox="0 0 48 48" fill="none" xmlns="http://www.w3.org/2000/svg">
<path d="M25.1818 0.242565C24.4271 -0.080855 23.5729 -0.080855 22.8182 0.242565L1.81824 9.24256C0.715191 9.7153 0 10.7999 0 12C0 13.2001 0.715191 14.2847 1.81824 14.7574L9.75112 18.1572C10.0396 17.8304 10.4012 17.5642 10.8182 17.3855L22.8182 12.2426C24.3411 11.5899 26.1048 12.2954 26.7574 13.8183C27.4101 15.3412 26.7046 17.1048 25.1818 17.7575L17 21.2639L22.8182 23.7574C23.5729 24.0809 24.4271 24.0809 25.1818 23.7574L46.1818 14.7574C47.2848 14.2847 48 13.2001 48 12C48 10.7999 47.2848 9.7153 46.1818 9.24256L25.1818 0.242565Z" fill="#7B7BCC"/>
<path d="M3.93013 22.1902L9 24.363V36.6679C7.97169 36.4347 6.92116 36.2602 5.85213 36.1481C4.44281 36.0003 3.32909 34.8866 3.18132 33.4773C3.06139 32.3335 3 31.1731 3 29.9995C3 27.3099 3.32223 24.6945 3.93013 22.1902Z" fill="#7B7BCC"/>
<path d="M21.8999 43.7175C19.8812 41.7386 17.555 40.0752 15 38.8053V26.9344L20.4547 29.2722C22.7187 30.2424 25.2813 30.2424 27.5453 29.2722L44.0699 22.1902C44.6778 24.6945 45 27.3099 45 29.9995C45 31.1731 44.9386 32.3335 44.8187 33.4773C44.6709 34.8866 43.5572 36.0003 42.1479 36.1481C35.9294 36.8001 30.3372 39.5639 26.1001 43.7175C24.9336 44.8611 23.0664 44.8611 21.8999 43.7175Z" fill="#7B7BCC"/>
<path d="M12 47.9999C13.6569 47.9999 15 46.6568 15 44.9999V38.8053C13.1141 37.868 11.1035 37.1451 9 36.6679V44.9999C9 46.6568 10.3431 47.9999 12 47.9999Z" fill="#7B7BCC"/>
</svg>
