<svg width="325" height="423" viewBox="0 0 325 423" fill="none" xmlns="http://www.w3.org/2000/svg">
<g clip-path="url(#clip0_218_22149)">
<path d="M78.9743 371.33C78.9743 371.965 78.8685 372.576 78.657 373.137L60.1034 418.233C58.4359 421.878 55.8911 422.62 54.037 422.62H52.382C50.5341 422.62 47.9831 421.878 46.3468 418.276L46.3343 418.233L27.7931 373.199C27.5629 372.576 27.4572 371.972 27.4572 371.33C27.4572 369.89 27.8989 368.688 28.7762 367.759C29.6721 366.831 30.8667 366.345 32.3413 366.345C33.3742 366.345 34.3261 366.663 35.1598 367.286C35.95 367.878 36.5535 368.65 36.9642 369.61L53.2157 410.182L69.4548 369.641C69.8655 368.657 70.469 367.878 71.2716 367.286C72.1054 366.663 73.0635 366.345 74.0777 366.345C75.5647 366.345 76.7593 366.831 77.6553 367.759C78.5326 368.688 78.9743 369.89 78.9743 371.33Z" fill="#333333"/>
<path d="M92.7807 385.469V417.716C92.7807 419.08 92.283 420.283 91.3124 421.224C90.3542 422.134 89.1472 422.62 87.8095 422.62C86.478 422.62 85.2772 422.134 84.3377 421.205C83.4106 420.264 82.9253 419.062 82.9253 417.716V385.469C82.9253 384.117 83.3982 382.933 84.319 381.979C85.2461 381.007 86.4593 380.49 87.8032 380.49C89.1969 380.49 90.4289 380.989 91.3684 381.917C92.2954 382.852 92.7807 384.067 92.7807 385.469Z" fill="#333333"/>
<path d="M93.465 370.433V370.738C93.465 372.196 92.9362 373.474 91.8909 374.52C90.8456 375.555 89.5888 376.084 88.1142 376.084H87.6725C86.2041 376.084 84.9286 375.555 83.8958 374.52C82.8505 373.474 82.3217 372.196 82.3217 370.738V370.433C82.3217 368.962 82.8505 367.685 83.8958 366.65C84.9286 365.603 86.1979 365.074 87.6725 365.074H88.1142C89.5826 365.074 90.8456 365.603 91.8909 366.65C92.9362 367.703 93.465 368.962 93.465 370.433Z" fill="#333333"/>
<path d="M239.399 366.656C240.445 367.703 240.973 368.962 240.973 370.439V370.744C240.973 372.202 240.445 373.48 239.399 374.527C238.354 375.561 237.097 376.091 235.623 376.091H235.168C233.713 376.091 232.437 375.561 231.392 374.527C230.359 373.48 229.83 372.202 229.83 370.744V370.439C229.83 368.968 230.359 367.691 231.404 366.656C232.437 365.61 233.706 365.08 235.162 365.08H235.616C237.097 365.074 238.354 365.603 239.399 366.656Z" fill="#333333"/>
<path d="M128.743 365.379C129.683 366.307 130.168 367.535 130.168 368.931V417.716C130.168 419.08 129.652 420.283 128.7 421.224C127.748 422.134 126.534 422.62 125.197 422.62C123.865 422.62 122.652 422.134 121.725 421.205C120.798 420.264 120.3 419.062 120.3 417.716V368.931C120.3 367.579 120.785 366.395 121.712 365.422C122.639 364.469 123.853 363.952 125.197 363.952C126.59 363.952 127.822 364.438 128.743 365.379Z" fill="#333333"/>
<path d="M238.87 381.911C239.81 382.851 240.295 384.067 240.295 385.462V417.709C240.295 419.074 239.779 420.277 238.808 421.218C237.869 422.127 236.655 422.613 235.324 422.613C233.992 422.613 232.779 422.127 231.852 421.199C230.925 420.258 230.427 419.055 230.427 417.709V385.469C230.427 384.116 230.913 382.932 231.84 381.979C232.767 381.007 233.98 380.49 235.324 380.49C236.718 380.484 237.943 380.988 238.87 381.911Z" fill="#333333"/>
<path d="M165.035 382.428C162.441 380.895 159.23 380.122 155.528 380.122C150.937 380.122 146.37 381.063 141.946 382.945C140.098 383.736 139.065 385.238 139.065 387.195C139.065 388.397 139.507 389.469 140.341 390.292C141.174 391.127 142.22 391.569 143.358 391.569C143.75 391.569 144.192 391.507 144.827 391.339C146.556 390.759 148.149 390.323 149.555 390.03C150.937 389.756 152.529 389.606 154.315 389.606C157.376 389.606 159.604 390.211 160.923 391.413C162.074 392.429 162.715 394.13 162.833 396.498H155.298C149.325 396.498 144.684 397.713 141.517 400.112C138.194 402.617 136.514 406.001 136.514 410.195C136.514 412.731 137.149 415.024 138.412 416.999C139.656 418.956 141.367 420.476 143.489 421.492C145.567 422.495 147.838 422.994 150.265 422.994C155.174 422.994 159.454 421.642 163.013 418.987C163.225 419.822 163.648 420.564 164.289 421.187C166.137 423.056 169.335 423.056 171.245 421.218C172.215 420.277 172.732 419.074 172.732 417.71V396.436C172.732 393.613 172.097 390.94 170.865 388.497C169.633 386.03 167.661 383.979 165.035 382.428ZM152.822 413.952C150.414 413.952 148.635 413.51 147.726 412.675C146.818 411.871 146.395 410.824 146.395 409.453C146.395 406.506 149.686 405.023 156.207 405.023H162.876V409.241C161.676 410.519 160.207 411.609 158.509 412.506C156.686 413.466 154.776 413.952 152.822 413.952Z" fill="#333333"/>
<path d="M224.137 414.681C224.896 415.653 225.288 416.7 225.288 417.797C225.35 419.043 224.896 420.258 223.938 421.212C223.011 422.14 221.798 422.626 220.466 422.626C218.83 422.626 217.467 421.941 216.522 420.651L198.254 397.314L191.354 404.3V417.722C191.354 419.087 190.838 420.302 189.867 421.23C188.896 422.159 187.727 422.626 186.383 422.626C185.033 422.626 183.838 422.14 182.911 421.212C182.911 421.199 182.911 421.199 182.911 421.199C181.971 420.271 181.486 419.074 181.486 417.722V371.336C181.486 369.984 181.959 368.819 182.88 367.847C184.728 365.921 187.976 365.902 189.886 367.834C190.844 368.787 191.354 370.003 191.354 371.342V391.538L214.431 368.034C215.358 366.968 216.627 366.364 218.052 366.364C219.296 366.364 220.385 366.787 221.294 367.641C222.233 368.507 222.718 369.629 222.718 370.906C222.718 372.321 222.295 373.455 221.462 374.308L205.073 390.647L224.137 414.681Z" fill="#333333"/>
<path d="M286.263 365.441C285.336 364.469 284.122 363.952 282.778 363.952C281.416 363.952 280.246 364.419 279.275 365.348C278.317 366.289 277.807 367.516 277.807 368.931V383.961C274.453 381.412 270.664 380.122 266.483 380.122C263.136 380.122 259.907 380.97 256.914 382.689C253.915 384.391 251.439 386.908 249.591 390.173C247.743 393.42 246.803 397.246 246.803 401.558C246.803 405.87 247.743 409.696 249.591 412.943C251.439 416.208 253.909 418.713 256.914 420.426C259.901 422.127 263.13 422.994 266.483 422.994C270.745 422.994 274.597 421.66 277.975 419.018C278.205 419.853 278.641 420.595 279.282 421.218C280.252 422.146 281.422 422.614 282.785 422.614C284.116 422.614 285.317 422.127 286.256 421.199C287.183 420.258 287.669 419.055 287.669 417.709V368.924C287.656 367.597 287.19 366.382 286.263 365.441ZM267.448 413.572C264.156 413.572 261.593 412.569 259.608 410.506C257.654 408.456 256.653 405.452 256.653 401.564C256.653 397.676 257.654 394.672 259.627 392.603C261.599 390.553 264.163 389.538 267.448 389.538C269.507 389.538 271.467 390.011 273.271 390.921C274.939 391.768 276.469 392.896 277.807 394.273V408.849C276.476 410.213 274.939 411.341 273.271 412.189C271.467 413.117 269.507 413.572 267.448 413.572Z" fill="#333333"/>
<path d="M110.053 365.379C110.992 366.307 111.477 367.535 111.477 368.931V417.716C111.477 419.08 110.961 420.283 110.009 421.224C109.051 422.134 107.844 422.62 106.506 422.62C105.175 422.62 103.974 422.134 103.034 421.205C102.107 420.264 101.622 419.062 101.622 417.716V368.931C101.622 367.579 102.095 366.395 103.016 365.422C103.943 364.469 105.156 363.952 106.5 363.952C107.9 363.952 109.126 364.438 110.053 365.379Z" fill="#333333"/>
<path d="M222.357 277.517C225.145 270.7 225.873 265.074 227.092 255.689C227.739 250.685 228.069 248.187 228.007 244.809C227.839 235.039 225.07 227.405 223.963 225.58C221.53 221.56 218.4 218.918 214.779 217.024C212.738 219.398 210.293 222.233 207.257 225.735C202.093 231.686 197.775 236.621 194.751 240.055C194.222 240.653 193.917 241.395 193.88 242.198C193.395 252.879 193.787 265.684 196.25 279.898C197.321 286.086 198.665 291.825 200.139 297.09C200.394 298.006 201.016 298.748 201.813 299.19C202.846 298.218 207.556 296.978 212.222 293.177C217.822 288.603 220.143 282.939 222.357 277.517Z" fill="#9494D8"/>
<path d="M52.1456 141.563C29.4606 132.858 13.5263 131.263 2.00963 130.116C1.21323 134.553 0.634599 139.102 0.311061 143.763C-4.68511 214.862 51.1936 280.29 133.472 300.106C135.32 300.548 137.186 299.421 137.69 297.589C143.097 277.842 143.694 259.484 142.406 244.174C142.369 243.763 142.263 243.364 142.095 242.99C128.245 212.232 118.888 189.762 112.84 173.53C91.2439 175.349 83.0248 153.415 52.1456 141.563Z" fill="#9494D8"/>
<path d="M142.332 87.9612C138.592 84.8019 135.065 81.3685 131.761 77.7294C131.605 77.5798 131.456 77.4428 131.3 77.287C131.014 76.9505 130.74 76.6265 130.46 76.3024C119.815 64.1638 111.782 49.7446 107.62 34.6586C107.315 33.5743 107.085 32.677 106.923 31.9729C105.573 26.4395 104.745 20.8313 104.509 15.2231C104.503 15.1359 104.496 15.0549 104.49 14.9739C60.6696 33.5183 12.3629 72.5574 2.00964 130.116C13.5263 131.263 29.4606 132.852 52.1456 141.563C83.0185 153.415 91.2377 175.349 112.84 173.53C102.767 146.498 101.871 136.79 104.664 134.964C104.72 134.927 105.536 134.453 106.718 134.123C106.718 134.123 108.398 133.643 110.115 133.768C113.935 134.036 120.387 145.358 124.319 155.016C124.332 155.054 125.358 157.017 127.412 160.936C129.004 163.977 130.044 165.902 131.723 166.083C131.723 166.083 132.551 166.152 133.329 165.728C135.021 164.806 133.434 156.83 130.068 139.868C127.735 128.103 125.962 118.351 124.767 111.559C124.282 104.437 128.712 99.6325 132.377 99.7197C134.144 99.7633 135.855 100.953 137.199 102.692C137.759 95.9684 139.159 89.8742 142.332 87.9612Z" fill="#FFD624"/>
<path d="M175.326 113.597C177.535 135.406 177.069 148.398 178.997 148.573C180.298 148.691 182.127 141.712 185.792 127.754C186.98 123.218 188.081 118.868 188.878 115.659C189.431 113.428 189.879 111.59 190.178 110.369C190.184 110.331 190.191 110.288 190.197 110.244C184.889 109.39 179.651 108.113 174.53 106.387C174.804 108.655 175.071 111.067 175.326 113.597Z" fill="#9ADE56"/>
<path d="M321.36 108.848C317.789 92.429 311.729 76.6887 302.9 62.5C283.5 91.9056 245.173 111.447 207.276 111.553C207.045 112.762 206.815 114.02 206.579 115.366C206.579 115.366 205.496 119.654 201.284 163.042C201.272 163.186 201.259 163.323 201.24 163.472C200.88 165.641 200.351 170.906 203.312 176.066C204.152 177.53 206.013 180.758 209.696 182.328C211.519 183.101 214.723 183.867 221.113 181.649C232.754 177.611 233.227 171.236 241.359 169.672C248.259 168.345 256.821 171.23 257.53 175.386C258.059 178.502 254.189 182.341 248.639 185.213C248.502 185.294 248.359 185.381 248.228 185.462C238.827 192.117 231.958 198.417 227.366 203.016C223.54 206.842 221.132 209.659 214.779 217.03C218.407 218.925 221.536 221.573 223.963 225.586C225.07 227.412 227.833 235.051 228.007 244.816C228.069 248.193 227.739 250.698 227.092 255.696C225.873 265.08 225.139 270.707 222.358 277.524C220.143 282.939 217.822 288.609 212.216 293.183C207.556 296.984 202.839 298.224 201.807 299.196C202.323 299.483 202.914 299.651 203.53 299.645C228.971 299.508 246.834 292.604 259.029 285.3C296.69 262.749 321.553 211.765 324.938 158.936C325.361 140.958 323.538 124.04 321.36 108.848Z" fill="#9ADE56"/>
<path d="M137.211 102.686C137.69 103.303 138.12 103.988 138.493 104.723C138.574 104.929 138.648 105.122 138.729 105.328C140.017 109.74 141.803 115.703 144.074 122.713C150.084 141.27 153.089 150.548 154.807 150.337C156.661 150.112 157.955 139.793 155.902 97.707C151.154 94.8468 146.612 91.5753 142.332 87.9612C139.159 89.8742 137.759 95.9684 137.211 102.686Z" fill="#9ADE56"/>
<path d="M302.9 62.5C298.059 54.7233 292.397 47.4015 285.846 40.6966C240.463 -5.72665 169.185 -6.26255 121.339 8.76114C115.864 10.481 110.221 12.5498 104.503 14.9738C104.509 15.061 104.515 15.142 104.521 15.2292C104.752 20.8374 105.585 26.4456 106.935 31.979C107.153 32.8763 107.39 33.7674 107.632 34.6647C111.795 49.7507 119.827 64.17 130.473 76.3085C130.896 76.7946 131.338 77.2619 131.773 77.7355C135.077 81.3746 138.605 84.808 142.344 87.9673C146.625 91.5877 151.167 94.8529 155.914 97.7131C155.871 96.7597 155.821 95.8063 155.771 94.8155C155.323 86.2475 160.711 80.6829 164.737 80.9322C167.848 81.1253 171.002 84.833 172.209 89.7806C172.863 93.8372 173.721 99.5077 174.536 106.381C179.651 108.107 184.889 109.384 190.203 110.238C190.439 108.574 190.838 106.312 191.578 103.683C193.264 97.7006 195.38 90.1919 200.295 88.9207C202.678 88.3038 205.671 89.1637 207.562 91.002C211.121 94.4479 209.46 100.062 207.282 111.553C245.173 111.447 283.5 91.9055 302.9 62.5Z" fill="#FA661E"/>
</g>
<defs>
<clipPath id="clip0_218_22149">
<rect width="325" height="423" fill="white"/>
</clipPath>
</defs>
</svg>
