<svg width="70" height="38" viewBox="0 0 70 38" fill="none" xmlns="http://www.w3.org/2000/svg">
<g clip-path="url(#clip0_466_56090)">
<path d="M57.3897 19.0541C57.5551 19.2205 57.6386 19.4198 57.6386 19.6521V19.6999C57.6386 19.9306 57.5551 20.1332 57.3897 20.2979C57.2243 20.461 57.0261 20.545 56.7951 20.545H56.7231C56.4938 20.545 56.2923 20.461 56.1285 20.2979C55.9663 20.1315 55.8828 19.9306 55.8828 19.6999V19.6521C55.8828 19.4198 55.9663 19.2172 56.1318 19.0541C56.2939 18.8877 56.4954 18.8037 56.7247 18.8037H56.7968C57.0261 18.8037 57.2243 18.8877 57.3897 19.0541Z" fill="#333333"/>
<path d="M57.3062 21.4692C57.4536 21.6175 57.5306 21.8102 57.5306 22.031V27.1347C57.5306 27.3506 57.4487 27.5417 57.2964 27.6899C57.149 27.8349 56.9573 27.9107 56.7461 27.9107C56.5364 27.9107 56.3448 27.8333 56.199 27.6866C56.0532 27.5384 55.9746 27.3473 55.9746 27.1331V22.0294C55.9746 21.8152 56.0516 21.6274 56.1974 21.4758C56.3431 21.3226 56.5348 21.2402 56.7477 21.2402C56.9672 21.2435 57.1604 21.3226 57.3062 21.4692Z" fill="#333333"/>
<path d="M54.9836 26.6554C55.1032 26.8086 55.1654 26.975 55.1654 27.148C55.1752 27.3457 55.1032 27.5368 54.9525 27.6883C54.8067 27.8349 54.6151 27.9124 54.4054 27.9124C54.1466 27.9124 53.9321 27.8036 53.7847 27.5994L50.9053 23.9058L49.8177 25.0112V27.1348C49.8177 27.3506 49.7358 27.5434 49.5835 27.69C49.4312 27.8366 49.2461 27.9107 49.0332 27.9107C48.8202 27.9107 48.6319 27.8333 48.4861 27.6867C48.4861 27.685 48.4861 27.685 48.4861 27.685C48.3387 27.5384 48.2617 27.349 48.2617 27.1348V19.7938C48.2617 19.5797 48.3354 19.3951 48.4812 19.2403C48.7727 18.9355 49.2838 18.9322 49.5851 19.2386C49.7358 19.3902 49.8161 19.5829 49.8161 19.7938V22.9898L53.4522 19.2699C53.598 19.1019 53.7994 19.0063 54.0238 19.0063C54.2204 19.0063 54.3923 19.0739 54.5348 19.209C54.6822 19.3457 54.7592 19.5236 54.7592 19.7263C54.7592 19.9503 54.6921 20.1299 54.561 20.265L51.9781 22.8515L54.9836 26.6554Z" fill="#333333"/>
<path d="M64.7747 18.8616C64.6289 18.7083 64.4373 18.626 64.2244 18.626C64.0098 18.626 63.8247 18.7001 63.6724 18.8467C63.5217 18.995 63.4415 19.191 63.4415 19.4134V21.7923C62.9141 21.3887 62.3162 21.1844 61.6562 21.1844C61.1288 21.1844 60.6194 21.3195 60.1493 21.5914C59.676 21.8599 59.2862 22.2586 58.9946 22.7759C58.7031 23.2899 58.5557 23.8961 58.5557 24.5782C58.5557 25.2602 58.7031 25.8664 58.9946 26.3804C59.2862 26.8977 59.676 27.2931 60.1493 27.5649C60.6194 27.8335 61.1288 27.9719 61.6562 27.9719C62.3277 27.9719 62.9337 27.761 63.4677 27.3425C63.5037 27.4743 63.5725 27.593 63.6724 27.6918C63.8247 27.8384 64.0098 27.9126 64.2244 27.9126C64.434 27.9126 64.624 27.8351 64.7714 27.6885C64.9172 27.5402 64.9942 27.3491 64.9942 27.135V19.4134C64.9942 19.2026 64.9205 19.0098 64.7747 18.8616ZM61.8101 26.4793C61.2909 26.4793 60.888 26.3211 60.5752 25.9933C60.2673 25.6688 60.11 25.1926 60.11 24.5782C60.11 23.9637 60.2673 23.4876 60.5784 23.1597C60.8896 22.8352 61.2926 22.6737 61.8118 22.6737C62.1361 22.6737 62.4456 22.7479 62.729 22.8928C62.9911 23.0279 63.2335 23.2058 63.4431 23.4233V25.7297C63.2335 25.9455 62.9911 26.1234 62.729 26.2585C62.4424 26.4068 62.1344 26.4793 61.8101 26.4793Z" fill="#333333"/>
<path d="M55.2228 8.38025C55.2228 8.48074 55.2064 8.57794 55.1721 8.6669L52.2484 15.8036C51.9864 16.3802 51.5834 16.4988 51.2935 16.4988H51.0331C50.7416 16.4988 50.3403 16.3818 50.0815 15.8118L50.0799 15.8052L47.1579 8.67678C47.1218 8.57794 47.1055 8.48239 47.1055 8.38189C47.1055 8.1529 47.1743 7.96345 47.3135 7.81682C47.4543 7.6702 47.6427 7.59277 47.8753 7.59277C48.0374 7.59277 48.1881 7.64384 48.3191 7.74104C48.4436 7.83495 48.5386 7.95686 48.6041 8.10842L51.1658 14.5301L53.7225 8.11336C53.7864 7.95686 53.883 7.83495 54.0092 7.74104C54.1402 7.6422 54.2909 7.59277 54.4514 7.59277C54.6856 7.59277 54.874 7.6702 55.0148 7.81682C55.154 7.9618 55.2228 8.15125 55.2228 8.38025Z" fill="#333333"/>
<path d="M57.3994 10.6177V15.7215C57.3994 15.9373 57.3208 16.1284 57.1684 16.2767C57.0178 16.4216 56.8261 16.4974 56.6165 16.4974C56.4068 16.4974 56.2168 16.42 56.0694 16.2734C55.9237 16.1251 55.8467 15.934 55.8467 15.7198V10.6177C55.8467 10.4036 55.9204 10.2158 56.0662 10.0642C56.2119 9.91098 56.4036 9.82861 56.6165 9.82861C56.836 9.82861 57.0292 9.90769 57.1783 10.0543C57.3224 10.2042 57.3994 10.397 57.3994 10.6177Z" fill="#333333"/>
<path d="M57.5058 8.23856V8.28634C57.5058 8.51698 57.4223 8.71961 57.2568 8.88436C57.0914 9.04745 56.8932 9.13147 56.6623 9.13147H56.5935C56.3626 9.13147 56.1611 9.04745 55.999 8.88436C55.8335 8.71797 55.75 8.51698 55.75 8.28634V8.23856C55.75 8.00628 55.8335 7.80364 55.999 7.64055C56.1611 7.47416 56.3626 7.39014 56.5935 7.39014H56.6623C56.8932 7.39014 57.0931 7.47416 57.2568 7.64055C57.4223 7.80529 57.5058 8.00463 57.5058 8.23856Z" fill="#333333"/>
<path d="M63.0665 7.4381C63.2139 7.58472 63.2909 7.77912 63.2909 7.99988V15.7214C63.2909 15.9372 63.209 16.1283 63.0583 16.2766C62.9076 16.4215 62.716 16.4973 62.5063 16.4973C62.2967 16.4973 62.105 16.4199 61.9593 16.2733C61.8135 16.125 61.7349 15.9339 61.7349 15.7197V7.99988C61.7349 7.78571 61.8118 7.5979 61.9576 7.44469C62.1034 7.29313 62.295 7.2124 62.5079 7.2124C62.7274 7.2124 62.9207 7.28818 63.0665 7.4381Z" fill="#333333"/>
<path d="M68.7864 10.1367C68.3785 9.89455 67.8708 9.771 67.2877 9.771C66.5637 9.771 65.8447 9.91926 65.147 10.2175C64.8554 10.3427 64.6933 10.5799 64.6933 10.8896C64.6933 11.0791 64.7621 11.2504 64.8947 11.3805C65.0258 11.5123 65.1912 11.5832 65.3697 11.5832C65.432 11.5832 65.5008 11.5733 65.6007 11.5469C65.8726 11.4563 66.1232 11.3855 66.3459 11.341C66.5637 11.2982 66.8143 11.2735 67.0961 11.2735C67.5792 11.2735 67.9297 11.369 68.1378 11.5601C68.3196 11.7216 68.4195 11.9901 68.4391 12.3657H67.2517C66.3099 12.3657 65.5794 12.5585 65.0798 12.9374C64.5573 13.3344 64.292 13.8698 64.292 14.5337C64.292 14.9357 64.3919 15.2981 64.5901 15.6111C64.7866 15.9209 65.0552 16.1614 65.391 16.3228C65.7186 16.481 66.0773 16.5601 66.4589 16.5601C67.2336 16.5601 67.9068 16.3459 68.4686 15.9258C68.5014 16.0576 68.5685 16.1762 68.6701 16.2751C68.9616 16.57 69.4661 16.57 69.7675 16.28C69.9198 16.1317 70.0017 15.9406 70.0017 15.7248V12.3542C70.0017 11.9077 69.9018 11.4843 69.7085 11.0972C69.5103 10.7067 69.1991 10.3822 68.7864 10.1367ZM66.8602 15.1252C66.4802 15.1252 66.2001 15.056 66.0576 14.9225C65.9135 14.7957 65.848 14.6293 65.848 14.4135C65.848 13.9472 66.3672 13.7117 67.3942 13.7117H68.4457V14.3789C68.2573 14.5815 68.0247 14.7545 67.7578 14.8962C67.4695 15.0494 67.1681 15.1252 66.8602 15.1252Z" fill="#333333"/>
<path d="M60.1203 7.4381C60.2677 7.58472 60.3447 7.77912 60.3447 7.99988V15.7214C60.3447 15.9372 60.2628 16.1283 60.1138 16.2766C59.9631 16.4215 59.7714 16.4973 59.5618 16.4973C59.3521 16.4973 59.1621 16.4199 59.0147 16.2733C58.869 16.125 58.792 15.9339 58.792 15.7197V7.99988C58.792 7.78571 58.8657 7.5979 59.0115 7.44469C59.1572 7.29313 59.3489 7.2124 59.5618 7.2124C59.7813 7.2124 59.9745 7.28818 60.1203 7.4381Z" fill="#333333"/>
<path d="M27.4264 34.3788C27.7703 33.5336 27.8604 32.8368 28.0111 31.6753C28.0914 31.0559 28.1307 30.7462 28.1241 30.3277C28.1028 29.1169 27.7621 28.1712 27.6262 27.9455C27.3265 27.448 26.9399 27.1202 26.4928 26.8862C26.2406 27.1795 25.9392 27.532 25.5641 27.9653C24.927 28.7033 24.3947 29.3145 24.0212 29.7396C23.9557 29.8137 23.918 29.906 23.9131 30.0048C23.8541 31.3277 23.9016 32.9142 24.2047 34.6753C24.3373 35.4413 24.5028 36.153 24.6846 36.8054C24.7157 36.9191 24.7927 37.0114 24.8909 37.0657C25.0187 36.9455 25.6001 36.7922 26.175 36.3211C26.8679 35.7511 27.1529 35.0493 27.4264 34.3788Z" fill="#9494C8"/>
<path d="M6.432 17.5371C3.63449 16.458 1.66903 16.2603 0.247345 16.1187C0.149072 16.6689 0.0786432 17.2323 0.037696 17.8089C-0.578149 26.6161 6.31408 34.7215 16.4624 37.1761C16.6901 37.2305 16.921 37.0921 16.9833 36.8648C17.6499 34.4183 17.7236 32.1449 17.5647 30.2487C17.5598 30.1976 17.5467 30.1482 17.527 30.1021C15.8187 26.2916 14.664 23.5074 13.9188 21.4975C11.2539 21.7216 10.2401 19.005 6.432 17.5371Z" fill="#9494D8"/>
<path d="M17.5567 10.8966C17.0949 10.5045 16.6608 10.0795 16.253 9.62806C16.2333 9.60993 16.2153 9.59181 16.1957 9.57369C16.1596 9.53251 16.1269 9.49132 16.0925 9.45178C14.7805 7.94768 13.7896 6.16186 13.2753 4.29367C13.2376 4.15858 13.2098 4.0482 13.1885 3.96089C13.0214 3.27556 12.9199 2.58034 12.8904 1.88677C12.8888 1.87524 12.8888 1.86535 12.8888 1.85547C7.48374 4.15364 1.52511 8.98885 0.247559 16.1189C1.66761 16.2606 3.63307 16.4583 6.43222 17.5374C10.2403 19.0052 11.2542 21.7219 13.919 21.4978C12.6758 18.1486 12.5661 16.9476 12.9117 16.7203C12.9183 16.7153 13.0198 16.6577 13.1656 16.6165C13.1656 16.6165 13.3736 16.5572 13.5849 16.572C14.0549 16.6049 14.8526 18.0069 15.3374 19.2046C15.339 19.2095 15.4652 19.4517 15.719 19.9377C15.9156 20.315 16.0433 20.5538 16.2514 20.5752C16.2514 20.5752 16.3529 20.5835 16.4495 20.5308C16.6575 20.4171 16.4626 19.4286 16.0466 17.3282C15.7583 15.8718 15.5405 14.6626 15.3931 13.8224C15.3325 12.941 15.8796 12.3447 16.3316 12.3562C16.5494 12.3611 16.7607 12.5094 16.9262 12.7252C16.9917 11.8883 17.1637 11.1338 17.5567 10.8966Z" fill="#FFD624"/>
<path d="M21.6253 14.0728C21.8972 16.7746 21.8399 18.3841 22.0774 18.4055C22.2379 18.4204 22.4639 17.5555 22.916 15.8256C23.0634 15.2639 23.1977 14.7252 23.2959 14.3265C23.3647 14.0497 23.4204 13.8224 23.4565 13.6708C23.4565 13.6659 23.4581 13.6609 23.4581 13.656C22.8029 13.5505 22.1576 13.3924 21.5254 13.1782C21.5614 13.4599 21.5942 13.7581 21.6253 14.0728Z" fill="#99C567"/>
<path d="M39.6384 13.4845C39.1978 11.4499 38.4509 9.50097 37.3617 7.74316C34.9688 11.3856 30.2402 13.8057 25.5673 13.8189C25.5395 13.9688 25.51 14.1237 25.4805 14.2917C25.4805 14.2917 25.3478 14.8238 24.827 20.1978C24.8253 20.2159 24.8237 20.2324 24.8221 20.2505C24.7778 20.519 24.7123 21.1714 25.0776 21.8106C25.1808 21.9918 25.4101 22.3921 25.8654 22.5865C26.0898 22.6821 26.4845 22.7776 27.274 22.5025C28.7104 22.0017 28.7677 21.2126 29.7718 21.0182C30.6235 20.8534 31.6799 21.2109 31.7667 21.7266C31.8322 22.1121 31.3539 22.5882 30.671 22.944C30.6546 22.9539 30.6366 22.9654 30.6202 22.9753C29.4606 23.8007 28.6138 24.5799 28.0471 25.1499C27.5753 25.6244 27.2773 25.972 26.4943 26.8863C26.9415 27.1219 27.328 27.4481 27.6278 27.9456C27.7637 28.1713 28.106 29.1186 28.1257 30.3278C28.1322 30.7463 28.0929 31.056 28.0127 31.6754C27.862 32.8385 27.7719 33.5354 27.4279 34.3789C27.1544 35.0494 26.8694 35.7528 26.1766 36.3179C25.6017 36.7891 25.0202 36.9423 24.8925 37.0625C24.9564 37.0988 25.0284 37.1185 25.1054 37.1185C28.2436 37.1021 30.4466 36.2454 31.9501 35.341C36.5952 32.5486 39.6629 26.2307 40.079 19.6871C40.1314 17.4614 39.907 15.3658 39.6384 13.4845Z" fill="#9ADE56"/>
<path d="M16.9243 12.7202C16.9833 12.7976 17.0373 12.8816 17.0816 12.9723C17.0914 12.997 17.1012 13.0217 17.111 13.048C17.2699 13.595 17.491 14.333 17.7711 15.2012C18.5131 17.4994 18.8832 18.6493 19.0945 18.6229C19.3238 18.5949 19.4827 17.3165 19.2288 12.1041C18.6425 11.7499 18.0823 11.3446 17.5549 10.8965C17.1634 11.1337 16.9915 11.8882 16.9243 12.7202Z" fill="#99C567"/>
<path d="M37.362 7.74146C36.7641 6.77771 36.0664 5.87163 35.2573 5.04132C29.6606 -0.709869 20.8685 -0.775767 14.9655 1.08583C14.2907 1.29835 13.5946 1.55535 12.8887 1.85518C12.8887 1.86507 12.8903 1.8766 12.8903 1.88649C12.9198 2.5817 13.0213 3.27527 13.1884 3.9606C13.2146 4.07098 13.2441 4.18301 13.2752 4.29339C13.7879 6.16157 14.7788 7.94739 16.0924 9.4515C16.1448 9.51081 16.1988 9.57011 16.2529 9.62942C16.6607 10.0808 17.0964 10.5059 17.5566 10.8979C18.084 11.346 18.6442 11.7513 19.2306 12.1055C19.224 11.9869 19.2191 11.8699 19.2126 11.7464C19.1569 10.6854 19.8218 9.99515 20.3181 10.0265C20.7014 10.0495 21.0912 10.5108 21.2403 11.122C21.3205 11.6245 21.427 12.3279 21.5269 13.178C22.1575 13.3922 22.8044 13.5503 23.4596 13.6557C23.4891 13.4498 23.5382 13.1698 23.6299 12.8436C23.8379 12.1022 24.0984 11.1714 24.706 11.0149C24.9992 10.9391 25.3694 11.0446 25.6019 11.2719C26.0409 11.6986 25.8362 12.3938 25.5676 13.8172C30.2404 13.8057 34.969 11.3856 37.362 7.74146Z" fill="#FA661E"/>
</g>
<defs>
<clipPath id="clip0_466_56090">
<rect width="70" height="37.1875" fill="white"/>
</clipPath>
</defs>
</svg>
