<svg width="192" height="56" viewBox="0 0 192 56" fill="none" xmlns="http://www.w3.org/2000/svg">
<path d="M41.0506 51.0223C41.5655 49.7858 41.7003 48.7663 41.9258 47.0671C42.046 46.1608 42.1048 45.7077 42.095 45.0955C42.0631 43.324 41.5532 41.9405 41.3497 41.6103C40.9011 40.8824 40.3226 40.4028 39.6533 40.0605C39.2758 40.4896 38.8247 41.0054 38.2633 41.6392C37.3097 42.719 36.5129 43.6132 35.954 44.2351C35.8559 44.3435 35.7996 44.4785 35.7922 44.6231C35.704 46.5585 35.775 48.8796 36.2286 51.4561C36.4271 52.5769 36.6747 53.6181 36.9469 54.5725C36.9934 54.7389 37.1087 54.8738 37.2557 54.9534C37.447 54.7774 38.3172 54.5533 39.1777 53.8639C40.2147 53.03 40.6412 52.0032 41.0506 51.0223Z" fill="#9494C8"/>
<path d="M9.62774 26.3828C5.44061 24.8041 2.49883 24.5149 0.370942 24.3076C0.223853 25.1126 0.118439 25.9369 0.0571518 26.7805C-0.864606 39.6656 9.45123 51.524 24.6406 55.1152C24.9814 55.1947 25.327 54.9923 25.4202 54.6597C26.4179 51.0805 26.5283 47.7544 26.2905 44.9802C26.2831 44.9055 26.2635 44.8332 26.2341 44.7657C23.6772 39.1908 21.9489 35.1175 20.8335 32.177C16.8449 32.5048 15.3274 28.5303 9.62774 26.3828Z" fill="#9494D8"/>
<path d="M26.2779 16.6673C25.5866 16.0937 24.9369 15.4718 24.3265 14.8114C24.2971 14.7849 24.2701 14.7584 24.2407 14.7319C24.1868 14.6716 24.1377 14.6114 24.0863 14.5535C22.1226 12.353 20.6395 9.74028 19.8697 7.00708C19.8133 6.80944 19.7716 6.64796 19.7398 6.52022C19.4897 5.51756 19.3377 4.50044 19.2936 3.48574C19.2912 3.46886 19.2912 3.4544 19.2912 3.43994C11.2013 6.80221 2.28276 13.8762 0.370605 24.3077C2.49604 24.515 5.43782 24.8042 9.62741 26.3829C15.3271 28.5304 16.8446 32.5049 20.8331 32.1771C18.9725 27.2771 18.8082 25.5201 19.3255 25.1875C19.3353 25.1802 19.4873 25.0959 19.7055 25.0356C19.7055 25.0356 20.0168 24.9488 20.333 24.9705C21.0366 25.0187 22.2305 27.0698 22.9561 28.8221C22.9586 28.8293 23.1473 29.1836 23.5273 29.8946C23.8215 30.4466 24.0127 30.7961 24.3241 30.8274C24.3241 30.8274 24.476 30.8394 24.6207 30.7623C24.932 30.596 24.6403 29.1499 24.0176 26.0768C23.5862 23.9462 23.2601 22.1771 23.0395 20.9479C22.9488 19.6584 23.7676 18.7859 24.4442 18.8027C24.7702 18.81 25.0865 19.0269 25.3341 19.3426C25.4321 18.1182 25.6895 17.0144 26.2779 16.6673Z" fill="#FFD624"/>
<path d="M32.3678 21.3141C32.7747 25.2669 32.6889 27.6217 33.0444 27.653C33.2847 27.6747 33.623 26.4094 34.2996 23.8786C34.5202 23.0567 34.7212 22.2686 34.8683 21.6853C34.9713 21.2804 35.0546 20.9478 35.1086 20.726C35.1086 20.7188 35.111 20.7116 35.111 20.7043C34.1304 20.5501 33.1645 20.3187 32.2183 20.0054C32.2722 20.4175 32.3212 20.8538 32.3678 21.3141Z" fill="#99C567"/>
<path d="M59.329 20.4539C58.6696 17.4772 57.5517 14.6259 55.9215 12.0542C52.3398 17.3832 45.2624 20.9238 38.2683 20.9431C38.2267 21.1625 38.1825 21.389 38.1384 21.6349C38.1384 21.6349 37.9398 22.4134 37.1603 30.2755C37.1578 30.3021 37.1554 30.3262 37.1529 30.3527C37.0867 30.7455 36.9887 31.7 37.5353 32.6352C37.6898 32.9003 38.033 33.486 38.7145 33.7704C39.0503 33.9102 39.6412 34.05 40.8228 33.6475C42.9727 32.9147 43.0585 31.7602 44.5613 31.4758C45.8361 31.2348 47.4173 31.7578 47.5472 32.5122C47.6452 33.0762 46.9294 33.7728 45.9071 34.2934C45.8826 34.3079 45.8557 34.3247 45.8311 34.3392C44.0955 35.5467 42.8281 36.6868 41.9799 37.5207C41.2738 38.2148 40.8277 38.7234 39.6559 40.0611C40.3251 40.4057 40.9037 40.883 41.3523 41.6109C41.5558 41.9411 42.0681 43.3269 42.0975 45.096C42.1073 45.7082 42.0485 46.1614 41.9284 47.0676C41.7029 48.7692 41.568 49.7888 41.0532 51.0228C40.6438 52.0038 40.2173 53.0329 39.1803 53.8596C38.3198 54.549 37.4495 54.7731 37.2583 54.9491C37.3539 55.0021 37.4618 55.031 37.577 55.031C42.274 55.0069 45.5713 53.7536 47.8218 52.4304C54.7742 48.345 59.3658 39.1018 59.9885 29.5284C60.0669 26.2721 59.7311 23.2063 59.329 20.4539Z" fill="#9ADE56"/>
<path d="M25.3318 19.3351C25.42 19.4484 25.5009 19.5713 25.5671 19.7039C25.5818 19.74 25.5965 19.7762 25.6113 19.8148C25.8491 20.615 26.18 21.6947 26.5992 22.9649C27.7097 26.3272 28.2638 28.0095 28.58 27.971C28.9232 27.93 29.161 26.0597 28.781 18.4337C27.9034 17.9155 27.065 17.3226 26.2756 16.667C25.6897 17.0141 25.4323 18.118 25.3318 19.3351Z" fill="#99C567"/>
<path d="M55.9216 12.0515C55.0268 10.6415 53.9824 9.3159 52.7714 8.10115C44.3947 -0.312968 31.2351 -0.409377 22.4 2.31418C21.39 2.6251 20.3481 3.0011 19.2915 3.43976C19.2915 3.45422 19.294 3.47109 19.294 3.48555C19.3381 4.50267 19.4901 5.51738 19.7401 6.52003C19.7793 6.68152 19.8235 6.84542 19.8701 7.0069C20.6374 9.7401 22.1205 12.3528 24.0866 14.5533C24.1651 14.6401 24.246 14.7269 24.3269 14.8136C24.9373 15.474 25.5894 16.0959 26.2782 16.6695C27.0676 17.3251 27.906 17.918 28.7836 18.4362C28.7738 18.2627 28.7665 18.0916 28.7567 17.9108C28.6733 16.3586 29.6686 15.3487 30.4114 15.3945C30.9851 15.4282 31.5685 16.1031 31.7916 16.9973C31.9117 17.7324 32.0711 18.7616 32.2206 20.0053C33.1644 20.3186 34.1328 20.55 35.1134 20.7042C35.1575 20.403 35.231 19.9932 35.3683 19.516C35.6797 18.4314 36.0695 17.0696 36.979 16.8406C37.4178 16.7298 37.9718 16.884 38.3199 17.2166C38.9769 17.8409 38.6705 18.858 38.2684 20.9404C45.2625 20.9236 52.3399 17.3829 55.9216 12.0515Z" fill="#FA661E"/>
<path d="M96.765 18.7411C96.765 19.0045 96.721 19.2593 96.6288 19.4924L88.7897 38.1969C88.0871 39.7081 87.0067 40.019 86.2294 40.019H85.5311C84.7494 40.019 83.6735 39.7124 82.9796 38.2185L82.9752 38.2012L75.1405 19.5183C75.0439 19.2593 75 19.0088 75 18.7454C75 18.1453 75.1844 17.6487 75.5577 17.2645C75.9354 16.8802 76.4404 16.6772 77.0641 16.6772C77.4988 16.6772 77.9029 16.8111 78.2542 17.0658C78.588 17.312 78.8427 17.6315 79.0183 18.0287L85.8869 34.8593L92.7422 18.0417C92.9135 17.6315 93.1726 17.312 93.5108 17.0658C93.8621 16.8068 94.2661 16.6772 94.6965 16.6772C95.3245 16.6772 95.8295 16.8802 96.2072 17.2645C96.5805 17.6444 96.765 18.141 96.765 18.7411Z" fill="#333333"/>
<path d="M102.602 24.6048V37.9812C102.602 38.5468 102.391 39.0477 101.983 39.4363C101.578 39.8162 101.065 40.0148 100.503 40.0148C99.9404 40.0148 99.431 39.8119 99.0357 39.4276C98.6449 39.039 98.4385 38.5382 98.4385 37.9769V24.6048C98.4385 24.0435 98.6361 23.5513 99.027 23.1541C99.4178 22.7525 99.9316 22.5366 100.503 22.5366C101.091 22.5366 101.609 22.7439 102.009 23.1282C102.395 23.5211 102.602 24.0262 102.602 24.6048Z" fill="#333333"/>
<path d="M102.887 18.3696V18.4948C102.887 19.0993 102.663 19.6304 102.219 20.0622C101.776 20.4896 101.245 20.7098 100.625 20.7098H100.441C99.8217 20.7098 99.2815 20.4896 98.8467 20.0622C98.4032 19.6261 98.1792 19.0993 98.1792 18.4948V18.3696C98.1792 17.7608 98.4032 17.2297 98.8467 16.8023C99.2815 16.3662 99.8217 16.146 100.441 16.146H100.625C101.245 16.146 101.78 16.3662 102.219 16.8023C102.663 17.2341 102.887 17.7565 102.887 18.3696Z" fill="#333333"/>
<path d="M117.796 16.2712C118.192 16.6555 118.398 17.165 118.398 17.7436V37.9808C118.398 38.5465 118.179 39.0473 117.775 39.4359C117.371 39.8159 116.857 40.0145 116.295 40.0145C115.732 40.0145 115.219 39.8116 114.828 39.4273C114.437 39.0387 114.226 38.5378 114.226 37.9765V17.7436C114.226 17.1823 114.432 16.69 114.823 16.2885C115.214 15.8913 115.728 15.6797 116.299 15.6797C116.887 15.6797 117.406 15.8783 117.796 16.2712Z" fill="#333333"/>
<path d="M133.132 23.3438C132.039 22.7091 130.677 22.3853 129.114 22.3853C127.173 22.3853 125.245 22.7739 123.374 23.5554C122.592 23.8835 122.158 24.5053 122.158 25.317C122.158 25.8135 122.342 26.2626 122.698 26.6037C123.049 26.9491 123.493 27.1348 123.971 27.1348C124.138 27.1348 124.323 27.1089 124.59 27.0398C125.319 26.8023 125.991 26.6166 126.589 26.5001C127.173 26.3878 127.845 26.323 128.6 26.323C129.896 26.323 130.835 26.5735 131.393 27.0743C131.881 27.4975 132.149 28.2013 132.201 29.1857H129.017C126.492 29.1857 124.533 29.6909 123.194 30.684C121.793 31.7245 121.082 33.1278 121.082 34.8679C121.082 35.9214 121.349 36.8713 121.881 37.6917C122.408 38.5034 123.128 39.1338 124.028 39.5569C124.907 39.9714 125.868 40.1787 126.892 40.1787C128.969 40.1787 130.774 39.6174 132.28 38.5164C132.368 38.8618 132.548 39.1727 132.82 39.4317C133.602 40.2046 134.955 40.2046 135.763 39.4447C136.171 39.0561 136.391 38.5552 136.391 37.9896V29.1555C136.391 27.9854 136.123 26.8757 135.605 25.861C135.073 24.8377 134.239 23.9871 133.132 23.3438ZM127.968 36.4179C126.949 36.4179 126.198 36.2366 125.816 35.8868C125.429 35.5544 125.254 35.1183 125.254 34.5527C125.254 33.3307 126.646 32.7133 129.399 32.7133H132.219V34.462C131.714 34.9931 131.09 35.4464 130.374 35.8178C129.601 36.2193 128.793 36.4179 127.968 36.4179Z" fill="#333333"/>
<path d="M109.896 16.2712C110.291 16.6555 110.498 17.165 110.498 17.7436V37.9808C110.498 38.5465 110.278 39.0473 109.878 39.4359C109.474 39.8159 108.961 40.0145 108.399 40.0145C107.836 40.0145 107.327 39.8116 106.932 39.4273C106.541 39.0387 106.334 38.5378 106.334 37.9765V17.7436C106.334 17.1823 106.532 16.69 106.923 16.2885C107.314 15.8913 107.828 15.6797 108.399 15.6797C108.987 15.6797 109.505 15.8783 109.896 16.2712Z" fill="#333333"/>
<path d="M170.866 16.8023C171.309 17.2384 171.533 17.7608 171.533 18.3696V18.4948C171.533 19.0993 171.309 19.6304 170.866 20.0622C170.422 20.4896 169.891 20.7098 169.272 20.7098H169.078C168.464 20.7098 167.923 20.4896 167.484 20.0622C167.049 19.6261 166.825 19.0993 166.825 18.4948V18.3696C166.825 17.7608 167.049 17.2297 167.493 16.8023C167.928 16.3662 168.468 16.146 169.083 16.146H169.276C169.891 16.146 170.422 16.3662 170.866 16.8023Z" fill="#333333"/>
<path d="M170.642 23.1319C171.037 23.5205 171.243 24.0257 171.243 24.6043V37.9806C171.243 38.5463 171.024 39.0471 170.615 39.4357C170.22 39.8157 169.706 40.0143 169.14 40.0143C168.578 40.0143 168.064 39.8113 167.673 39.4271C167.282 39.0385 167.071 38.5376 167.071 37.9763V24.5999C167.071 24.0386 167.278 23.5464 167.669 23.1492C168.059 22.7476 168.573 22.5317 169.144 22.5317C169.733 22.5404 170.251 22.7476 170.642 23.1319Z" fill="#333333"/>
<path d="M164.414 36.7246C164.735 37.1261 164.902 37.5622 164.902 38.0156C164.928 38.5337 164.735 39.0345 164.331 39.4318C163.94 39.8161 163.426 40.019 162.864 40.019C162.17 40.019 161.595 39.734 161.2 39.1986L153.479 29.5182L150.563 32.4154V37.981C150.563 38.5466 150.343 39.0518 149.935 39.4361C149.527 39.8204 149.03 40.0147 148.459 40.0147C147.888 40.0147 147.383 39.8117 146.993 39.4275C146.993 39.4231 146.993 39.4231 146.993 39.4231C146.597 39.0389 146.391 38.5423 146.391 37.981V18.7411C146.391 18.1798 146.588 17.6962 146.979 17.2904C147.761 16.4916 149.131 16.4829 149.939 17.286C150.343 17.6833 150.559 18.1885 150.559 18.7411V27.1176L160.308 17.3681C160.699 16.9277 161.239 16.6772 161.841 16.6772C162.368 16.6772 162.829 16.8543 163.211 17.2083C163.606 17.5667 163.813 18.033 163.813 18.5641C163.813 19.1513 163.632 19.6219 163.281 19.976L156.356 26.7549L164.414 36.7246Z" fill="#333333"/>
<path d="M190.667 16.2971C190.276 15.8956 189.763 15.6797 189.192 15.6797C188.616 15.6797 188.12 15.874 187.712 16.2583C187.308 16.6469 187.092 17.1607 187.092 17.7436V23.9784C185.678 22.9205 184.075 22.3851 182.306 22.3851C180.891 22.3851 179.526 22.7392 178.265 23.4516C176.996 24.1554 175.951 25.2003 175.169 26.5561C174.387 27.9032 173.992 29.4922 173.992 31.2797C173.992 33.0672 174.387 34.6562 175.169 36.0033C175.951 37.3591 176.996 38.3953 178.265 39.1078C179.526 39.8116 180.891 40.1742 182.306 40.1742C184.106 40.1742 185.731 39.6216 187.163 38.5249C187.259 38.8703 187.444 39.1812 187.712 39.4402C188.12 39.8245 188.616 40.0188 189.192 40.0188C189.754 40.0188 190.263 39.8159 190.658 39.4316C191.049 39.043 191.256 38.5421 191.256 37.9808V17.7436C191.256 17.1909 191.058 16.6857 190.667 16.2971ZM182.718 36.2624C181.326 36.2624 180.246 35.8479 179.407 34.9886C178.581 34.138 178.16 32.8902 178.16 31.2797C178.16 29.6692 178.581 28.4214 179.416 27.5621C180.25 26.7115 181.331 26.2884 182.723 26.2884C183.592 26.2884 184.422 26.4827 185.182 26.8626C185.885 27.2167 186.535 27.683 187.097 28.253V34.2978C186.535 34.8634 185.885 35.3297 185.182 35.6838C184.414 36.0724 183.588 36.2624 182.718 36.2624Z" fill="#333333"/>
</svg>
