<svg width="32" height="23" viewBox="0 0 32 23" fill="none" xmlns="http://www.w3.org/2000/svg">
<path d="M14 1.60847C11.8856 0.578113 9.51032 0 7 0C4.48968 0 2.11439 0.578113 0 1.60847V21.6085C2.11439 20.5781 4.48968 20 7 20C10.3372 20 13.4358 21.0217 16 22.7694C18.5642 21.0217 21.6628 20 25 20C27.5103 20 29.8856 20.5781 32 21.6085V1.60847C29.8856 0.578113 27.5103 0 25 0C22.4897 0 20.1144 0.578113 18 1.60847V16C18 17.1046 17.1046 18 16 18C14.8954 18 14 17.1046 14 16V1.60847Z" fill="white"/>
</svg>
