<svg width="25" height="27" viewBox="0 0 25 27" fill="none" xmlns="http://www.w3.org/2000/svg">
<path fill-rule="evenodd" clip-rule="evenodd" d="M0.25 3.74994C0.25 1.81694 1.817 0.249939 3.75 0.249939H21.25C23.183 0.249939 24.75 1.81694 24.75 3.74994V17.7499C24.75 19.6829 23.183 21.2499 21.25 21.2499H17.3664L17.5802 22.1052L18.9875 23.5125C19.488 24.013 19.6377 24.7657 19.3668 25.4196C19.096 26.0736 18.4579 26.4999 17.75 26.4999H7.25005C6.54224 26.4999 5.90413 26.0736 5.63326 25.4196C5.36239 24.7657 5.51212 24.013 6.01261 23.5125L7.41986 22.1052L7.63369 21.2499H3.75C1.817 21.2499 0.25 19.6829 0.25 17.7499V3.74994ZM10.3498 15.9999C10.324 15.9994 10.2983 15.9994 10.2727 15.9999H3.75V3.74994H21.25V15.9999H14.7274C14.7018 15.9994 14.6761 15.9994 14.6503 15.9999H10.3498Z" fill="white"/>
</svg>
