<svg width="36" height="30" viewBox="0 0 36 30" fill="none" xmlns="http://www.w3.org/2000/svg">
<path d="M24 5.99999C24 9.31369 21.3137 12 18 12C14.6863 12 12 9.31369 12 5.99999C12 2.68628 14.6863 -7.62939e-06 18 -7.62939e-06C21.3137 -7.62939e-06 24 2.68628 24 5.99999Z" fill="white"/>
<path d="M34 9.99998C34 12.2091 32.2091 14 30 14C27.7908 14 26 12.2091 26 9.99998C26 7.79085 27.7908 5.99999 30 5.99999C32.2091 5.99999 34 7.79085 34 9.99998Z" fill="white"/>
<path d="M26 24C26 19.5817 22.4183 16 18 16C13.5817 16 9.99999 19.5817 9.99999 24V30H26V24Z" fill="white"/>
<path d="M9.99999 9.99998C9.99999 12.2091 8.20913 14 6 14C3.79086 14 2 12.2091 2 9.99998C2 7.79085 3.79086 5.99999 6 5.99999C8.20913 5.99999 9.99999 7.79085 9.99999 9.99998Z" fill="white"/>
<path d="M30 30V24C30 21.8917 29.4563 19.9104 28.5015 18.1886C28.9804 18.0655 29.4826 18 30 18C33.3137 18 36 20.6863 36 24V30H30Z" fill="white"/>
<path d="M7.49852 18.1886C6.54369 19.9104 6 21.8917 6 24V30H0V24C0 20.6863 2.68629 18 6 18C6.51742 18 7.01953 18.0655 7.49852 18.1886Z" fill="white"/>
</svg>
