<svg width="36" height="28" viewBox="0 0 36 28" fill="none" xmlns="http://www.w3.org/2000/svg">
<path d="M16 6C16 9.31371 13.3137 12 10 12C6.68629 12 4 9.31371 4 6C4 2.68629 6.68629 0 10 0C13.3137 0 16 2.68629 16 6Z" fill="white"/>
<path d="M32 6C32 9.31371 29.3137 12 26 12C22.6863 12 20 9.31371 20 6C20 2.68629 22.6863 0 26 0C29.3137 0 32 2.68629 32 6Z" fill="white"/>
<path d="M23.8583 28C23.9517 27.3468 24 26.679 24 26C24 22.7296 22.8787 19.7212 20.9995 17.3381C22.4705 16.4871 24.1784 16 26 16C31.5229 16 36 20.4772 36 26V28H23.8583Z" fill="white"/>
<path d="M10 16C15.5228 16 20 20.4772 20 26V28H0V26C0 20.4772 4.47715 16 10 16Z" fill="white"/>
</svg>
