<svg width="32" height="32" viewBox="0 0 32 32" fill="none" xmlns="http://www.w3.org/2000/svg">
<path fill-rule="evenodd" clip-rule="evenodd" d="M16 32C24.8365 32 32 24.8366 32 16C32 7.16344 24.8365 0 16 0C7.16344 0 -3.8147e-06 7.16344 -3.8147e-06 16C-3.8147e-06 24.8366 7.16344 32 16 32ZM18 10C18 8.89543 17.1046 8 16 8C14.8954 8 14 8.89543 14 10V14H9.99999C8.89542 14 7.99999 14.8954 7.99999 16C7.99999 17.1046 8.89542 18 9.99999 18H14V22C14 23.1046 14.8954 24 16 24C17.1046 24 18 23.1046 18 22V18H22C23.1045 18 24 17.1046 24 16C24 14.8954 23.1045 14 22 14H18V10Z" fill="#4F4F4F"/>
</svg>
