<svg width="29" height="29" viewBox="0 0 29 29" fill="none" xmlns="http://www.w3.org/2000/svg">
<path fill-rule="evenodd" clip-rule="evenodd" d="M28.4999 14.5C28.4999 22.232 22.2319 28.5 14.5 28.5C6.768 28.5 0.5 22.232 0.5 14.5C0.5 6.76801 6.768 0.5 14.5 0.5C22.2319 0.5 28.4999 6.76801 28.4999 14.5ZM18 9.25C18 11.183 16.433 12.75 14.5 12.75C12.567 12.75 11 11.183 11 9.25C11 7.317 12.567 5.75 14.5 5.75C16.433 5.75 18 7.317 18 9.25ZM14.4998 16.25C10.9692 16.25 7.92689 18.3412 6.54402 21.3525C8.46953 23.5861 11.3196 25 14.4999 25C17.6802 25 20.5302 23.5861 22.4557 21.3526C21.0729 18.3412 18.0306 16.25 14.4998 16.25Z" fill="white"/>
</svg>
