<svg width="29" height="27" viewBox="0 0 29 27" fill="none" xmlns="http://www.w3.org/2000/svg">
<path fill-rule="evenodd" clip-rule="evenodd" d="M2.25 0.25C1.2835 0.25 0.5 1.0335 0.5 2C0.5 2.9665 1.2835 3.75 2.25 3.75V17.75C2.25 19.683 3.817 21.25 5.75 21.25H10.2751L8.01256 23.5126C7.32914 24.196 7.32914 25.304 8.01256 25.9874C8.69598 26.6709 9.80402 26.6709 10.4874 25.9874L14.5 21.9749L18.5126 25.9874C19.196 26.6709 20.304 26.6709 20.9874 25.9874C21.6709 25.304 21.6709 24.196 20.9874 23.5126L18.7249 21.25H23.25C25.183 21.25 26.75 19.683 26.75 17.75V3.75C27.7165 3.75 28.5 2.9665 28.5 2C28.5 1.0335 27.7165 0.25 26.75 0.25H2.25ZM22.7374 8.48744C23.4209 7.80402 23.4209 6.69598 22.7374 6.01256C22.054 5.32915 20.946 5.32915 20.2626 6.01256L14.5 11.7751L12.2374 9.51256C11.554 8.82914 10.446 8.82914 9.76256 9.51256L6.26256 13.0126C5.57915 13.696 5.57915 14.804 6.26256 15.4874C6.94598 16.1709 8.05402 16.1709 8.73744 15.4874L11 13.2249L13.2626 15.4874C13.946 16.1709 15.054 16.1709 15.7374 15.4874L22.7374 8.48744Z" fill="white"/>
</svg>
