<svg xmlns="http://www.w3.org/2000/svg" width="1454.835" height="1049.623" viewBox="0 0 1454.835 1049.623">
  <g id="Grupo_1" data-name="Grupo 1" transform="translate(-231.863 -96)">
    <g id="Group" transform="translate(239 96)">
      <path id="Trazado_1" data-name="Trazado 1" d="M-2.82,171.583c-5.12,7.7-3.43,23.55-4.18,32.06,36-45.87,101.61-32.411,151.73-30.75,49.26,1.63,96.72-14.22,122.38-58.71,18.44-32,27.75-83.35,52.49-111.63-1.83,2.1-17.27-.19-20.52,0-6.08.3-9.28-5.55-11.6-.47-9.27,20.31-23.46,52.35-31.33,73.22-7.3,19.37-18.26,40.491-35.62,53.19-13.59,9.94-30.15,14.92-46.59,17.64-35,5.77-69.28-4.3-104.08-1.18-23.66,2.12-55.41,6.27-71.86,25.56A11.056,11.056,0,0,0-2.82,171.583Z" fill="#9494d8"/>
      <path id="Trazado_2" data-name="Trazado 2" d="M-.66,750.233v25.079c0,6.361,24,11,28.7,12.191,12.51,3.15,25.31,4.92,38,7.46,19.45,3.91,39.37,10,53.62,23.849,18.56,17.95,24.06,45.391,25.72,71.151s.52,52.32,9.41,76.56c13.35,36.447,48,62,85.14,73.277,30.08,9.16,62.07,11.29,93.31,8.94,14.7-1.11,27.71-2.74,40.8-9.85,12.53-6.8,23.63-15.91,36-23,25.24-14.44,56.5-13.56,82.3-.52,8.53,4.31,21.4,16.86,30,21,6.81,3.3,14.16.9,21.92-1.09,10.17-2.61-.45-9.48-5.32-13.86-12.63-11.38-29.24-23.917-45-30.347-34.73-14.18-74-13.451-104.82,8.927-29.61,21.51-66.94,32.08-104,27.17-33.65-4.47-71.8-18.67-91-48.157a144.636,144.636,0,0,1-22.79-66.63c-2.63-33.22-2.51-71.46-23.19-98.78-25.52-33.72-62.25-36-100.71-44.16C32.14,766.233,10.01,762.873-.66,750.233Z" fill="#56ccf2"/>
      <path id="Trazado_3" data-name="Trazado 3" d="M-.66,722.163v28.07c0,5.91,42.64,18.85,47.12,20.18,28.53,8.43,64.37,7.81,88.19,29,41,36.49,27.18,95.56,40.54,143.69,6.54,23.56,23.12,52.7,44.69,64.9,35.68,20.17,86.87,30.06,126.43,16.28,25.52-8.89,46.88-26.647,71.67-37.257,44-18.82,99.9,9.76,128.71,42.9,2.18,2.5,4.39,5.17,7.44,6.48s7.21.72,8.79-2.2c.79-1.47,9.8-2.23,9.64-3.89-1.81-19.73-31.91-44.147-48.07-52.707-34.5-18.26-78-28.12-116.74-13.95-27.37,10-48.75,28.33-75.91,38.837-43.86,17-96.35-2.22-121.39-40.777-13.08-20.14-16-43.53-17.79-66.63-2.63-33.22-6.51-70.46-27.19-97.78-25.52-33.72-64.25-39-102.71-47.16C47.51,746.883,10.01,734.8-.66,722.163Z" fill="#9494d8"/>
      <path id="Trazado_4" data-name="Trazado 4" d="M1443.51,750.233v25.079c0,6.361-24,11-28.7,12.191-12.51,3.15-25.31,4.92-37.94,7.46-19.46,3.91-39.38,10-53.63,23.849-18.55,17.95-24.06,45.391-25.72,71.151s-.52,52.32-9.41,76.56c-13.35,36.447-48,62-85.14,73.277-30.08,9.16-62.06,11.29-93.31,8.94-14.7-1.11-27.71-2.74-40.8-9.85-12.53-6.8-23.63-15.91-36-23-25.24-14.44-56.5-13.56-82.29-.52-8.54,4.31-21.41,16.86-30,21-6.81,3.3-14.16.9-21.92-1.09-10.17-2.61.45-9.48,5.32-13.86,12.63-11.38,29.24-23.917,45-30.347,34.72-14.18,74-13.451,104.81,8.927,29.61,21.51,66.94,32.08,104,27.17,33.65-4.47,71.81-18.67,91-48.157a144.639,144.639,0,0,0,22.73-66.581c2.63-33.22,2.51-71.459,23.19-98.779,25.52-33.72,62.25-36,100.72-44.16C1410.72,766.233,1432.84,762.873,1443.51,750.233Z" fill="#56ccf2"/>
      <path id="Trazado_5" data-name="Trazado 5" d="M1443.51,722.163v28.07c0,5.91-42.64,18.85-47.12,20.18-28.53,8.43-64.37,7.81-88.19,29-41,36.49-27.18,95.56-40.54,143.69-6.54,23.56-23.12,52.7-44.69,64.9-35.67,20.17-86.86,30.06-126.43,16.28-25.52-8.89-46.87-26.647-71.67-37.257-44-18.82-99.9,9.76-128.71,42.9-2.18,2.5-4.39,5.17-7.44,6.48s-7.21.72-8.79-2.2c-.79-1.47-9.79-2.23-9.64-3.89,1.81-19.73,31.91-44.147,48.07-52.707,34.5-18.26,78-28.12,116.74-13.95,27.37,10,48.76,28.33,75.91,38.837,43.86,17,96.36-2.22,121.39-40.777,13.08-20.14,16-43.53,17.79-66.63,2.63-33.22,6.51-70.46,27.19-97.78,25.52-33.72,64.25-39,102.72-47.16C1395.37,746.883,1432.84,734.8,1443.51,722.163Z" fill="#9494d8"/>
      <path id="Trazado_6" data-name="Trazado 6" d="M2.8,148.792c-4.7,7-3.15,21.59-3.83,29.39,33-42.05,93.14-29.72,139.07-28.19,45.16,1.5,85-11.2,108.51-52,16.96-29.28,18.28-46.06,41.81-92.28-1.68,1.91-15.85-.18-18.85,0-5.57.28-8.51-5.08-10.63-.43-8.5,18.62-15.2,38-22.41,57.1-6.69,17.76-13.08,35.29-29,46.92-12.46,9.121-27.63,13.681-42.7,16.171-32.08,5.29-63.5-3.94-95.41-1.08-21.63,1.919-50.74,5.719-65.85,23.4A10.665,10.665,0,0,0,2.8,148.792Z" fill="#56ccf2"/>
      <path id="Trazado_7" data-name="Trazado 7" d="M1443.33,171.583c5.13,7.7,3.44,23.55,4.18,32.06-36-45.87-101.61-32.411-151.72-30.75-49.27,1.63-96.72-14.22-122.38-58.71-18.45-32-27.76-83.35-52.5-111.63,1.83,2.1,17.28-.19,20.52,0,6.08.3,9.29-5.55,11.6-.47,9.27,20.31,23.46,52.35,31.33,73.22,7.3,19.37,18.27,40.491,35.62,53.19,13.6,9.94,30.15,14.92,46.59,17.64,35,5.77,69.28-4.3,104.09-1.18,23.66,2.12,55.41,6.27,71.85,25.56A11.973,11.973,0,0,1,1443.33,171.583Z" fill="#9494d8"/>
      <path id="Trazado_8" data-name="Trazado 8" d="M1437.72,148.792c4.69,7,3.14,21.59,3.83,29.39-33-42.05-93.14-29.72-139.08-28.19-45.15,1.5-85-11.2-108.5-52-16.91-29.28-18.29-46.06-41.82-92.28,1.68,1.91,15.84-.18,18.81,0,5.57.28,8.51-5.08,10.63-.43,8.5,18.62,15.2,38,22.42,57.1,6.69,17.76,13.07,35.29,29,46.92,12.46,9.121,27.63,13.681,42.7,16.171,32.08,5.29,63.51-3.94,95.41-1.08,21.69,1.949,50.79,5.749,65.87,23.429A8.185,8.185,0,0,1,1437.72,148.792Z" fill="#56ccf2"/>
    </g>
    <path id="Vector" d="M-23.78,2.12c61.85,5.11,132.2,29.24,182.8,58.17,31.7,18.13,59.9,44.43,73.23,78.11,9.2,23.25,10.88,49.07,6.52,73.64-5.1,28.84-19.07,56.93-42.43,75s-56.77,24.45-83.7,12.17c-31.3-14.28-52.46-49.79-53.35-83.86C58.17,171.42,91.62,149,132,141.67c45.66-8.26,109.31-6.18,144.63,28,18.38,17.83,27.1,44,26.89,69.43-.6,70.91-64.73,133-121.74,169.07C118.15,448.41,43.16,468-31.57,474.83" transform="translate(263.57 261.36)" fill="none" stroke="#9494d8" stroke-miterlimit="10" stroke-width="3" stroke-dasharray="11.97 11.97"/>
    <path id="Vector-1" d="M361.16,3.58C308.35-3.11,254.06,11.21,210.43,41c-33.77,23.06-95.33,82.5-81.45,128.53,4.06,13.45,16,24.23,29.88,27.22a42.329,42.329,0,0,0,38.88-12.14c14-14.84,14.73-39,4.56-56.58s-29.46-28.81-49.58-32.84-41-1.55-61,3.21c-74.1,17.7-110.17,78.29-78.27,148.15,36.1,79.07,125,132.39,213.08,122.1" transform="translate(1325.35 497.876)" fill="none" stroke="#9494d8" stroke-miterlimit="10" stroke-width="3" stroke-dasharray="12 12"/>
  </g>
</svg>
