<svg xmlns="http://www.w3.org/2000/svg" width="336.731" height="475.699" viewBox="0 0 336.731 475.699">
  <path id="Vector" d="M-23.78,2.12c61.85,5.11,132.2,29.24,182.8,58.17,31.7,18.13,59.9,44.43,73.23,78.11,9.2,23.25,10.88,49.07,6.52,73.64-5.1,28.84-19.07,56.93-42.43,75s-56.77,24.45-83.7,12.17c-31.3-14.28-52.46-49.79-53.35-83.86C58.17,171.42,91.62,149,132,141.67c45.66-8.26,109.31-6.18,144.63,28,18.38,17.83,27.1,44,26.89,69.43-.6,70.91-64.73,133-121.74,169.07C118.15,448.41,43.16,468-31.57,474.83" transform="translate(31.707 -0.625)" fill="none" stroke="#9494d8" stroke-miterlimit="10" stroke-width="3" stroke-dasharray="11.97 11.97"/>
</svg>
