<svg xmlns="http://www.w3.org/2000/svg" width="573.222" height="327.46" viewBox="0 0 573.222 327.46">
  <g id="Grupo_11" data-name="Grupo 11" transform="translate(0)">
    <path id="Trazado_15" data-name="Trazado 15" d="M894.393,750.233v25.079c0,6.361,24,11,28.7,12.191,12.51,3.15,25.31,4.92,37.94,7.46,19.46,3.91,39.38,10,53.63,23.849,18.55,17.95,24.06,45.391,25.72,71.151s.52,52.32,9.41,76.56c13.35,36.447,48,62,85.14,73.277,30.08,9.16,62.06,11.29,93.31,8.94,14.7-1.11,27.71-2.74,40.8-9.85,12.53-6.8,23.63-15.91,36-23,25.24-14.44,56.5-13.56,82.29-.52,8.54,4.31,21.41,16.86,30,21,6.81,3.3,14.16.9,21.92-1.09,10.17-2.61-.45-9.48-5.32-13.86-12.63-11.38-29.24-23.917-45-30.347-34.72-14.18-74-13.451-104.81,8.927-29.61,21.51-66.94,32.08-104,27.17-33.65-4.47-71.81-18.67-91-48.157a144.639,144.639,0,0,1-22.73-66.581c-2.63-33.22-2.51-71.459-23.19-98.779-25.52-33.72-62.25-36-100.72-44.16C927.183,766.233,905.063,762.873,894.393,750.233Z" transform="translate(-894.393 -722.163)" fill="#56ccf2"/>
    <path id="Trazado_16" data-name="Trazado 16" d="M870.288,722.163v28.07c0,5.91,42.64,18.85,47.12,20.18,28.53,8.43,64.37,7.81,88.19,29,41,36.49,27.18,95.56,40.54,143.69,6.54,23.56,23.12,52.7,44.69,64.9,35.67,20.17,86.86,30.06,126.43,16.28,25.52-8.89,46.87-26.647,71.67-37.257,44-18.82,99.9,9.76,128.71,42.9,2.18,2.5,4.39,5.17,7.44,6.48s7.21.72,8.79-2.2c.79-1.47,9.79-2.23,9.64-3.89-1.81-19.73-31.91-44.147-48.07-52.707-34.5-18.26-78-28.12-116.74-13.95-27.37,10-48.76,28.33-75.91,38.837-43.86,17-96.36-2.22-121.39-40.777-13.08-20.14-16-43.53-17.79-66.63-2.63-33.22-6.51-70.46-27.19-97.78-25.52-33.72-64.25-39-102.72-47.16C918.428,746.883,880.958,734.8,870.288,722.163Z" transform="translate(-870.288 -722.163)" fill="#9494d8"/>
  </g>
</svg>
