<svg xmlns="http://www.w3.org/2000/svg" width="326.6" height="203.643" viewBox="0 0 326.6 203.643">
  <g id="Grupo_4" data-name="Grupo 4" transform="translate(-232 726)">
    <path id="Trazado_654" data-name="Trazado 654" d="M-2.82,171.583c-5.12,7.7-3.43,23.55-4.18,32.06,36-45.87,101.61-32.411,151.73-30.75,49.26,1.63,96.72-14.22,122.38-58.71,18.44-32,27.75-83.35,52.49-111.63-1.83,2.1-17.27-.19-20.52,0-6.08.3-9.28-5.55-11.6-.47-9.27,20.31-23.46,52.35-31.33,73.22-7.3,19.37-18.26,40.491-35.62,53.19-13.59,9.94-30.15,14.92-46.59,17.64-35,5.77-69.28-4.3-104.08-1.18-23.66,2.12-55.41,6.27-71.86,25.56A11.056,11.056,0,0,0-2.82,171.583Z" transform="translate(239 -726)" fill="#9494d8"/>
    <path id="Trazado_655" data-name="Trazado 655" d="M2.8,148.792c-4.7,7-3.15,21.59-3.83,29.39,33-42.05,93.14-29.72,139.07-28.19,45.16,1.5,85-11.2,108.51-52,16.96-29.28,18.28-46.06,41.81-92.28-1.68,1.91-15.85-.18-18.85,0-5.57.28-8.51-5.08-10.63-.43-8.5,18.62-15.2,38-22.41,57.1-6.69,17.76-13.08,35.29-29,46.92-12.46,9.121-27.63,13.681-42.7,16.171-32.08,5.29-63.5-3.94-95.41-1.08-21.63,1.919-50.74,5.719-65.85,23.4A10.665,10.665,0,0,0,2.8,148.792Z" transform="translate(239 -726)" fill="#56ccf2"/>
  </g>
</svg>
