<svg xmlns="http://www.w3.org/2000/svg" width="326.6" height="203.643" viewBox="0 0 326.6 203.643">
  <g id="Grupo_5" data-name="Grupo 5" transform="translate(-1351.416 726)">
    <path id="Trazado_656" data-name="Trazado 656" d="M1443.33,171.583c5.13,7.7,3.44,23.55,4.18,32.06-36-45.87-101.61-32.411-151.72-30.75-49.27,1.63-96.72-14.22-122.38-58.71-18.45-32-27.76-83.35-52.5-111.63,1.83,2.1,17.28-.19,20.52,0,6.08.3,9.29-5.55,11.6-.47,9.27,20.31,23.46,52.35,31.33,73.22,7.3,19.37,18.27,40.491,35.62,53.19,13.6,9.94,30.15,14.92,46.59,17.64,35,5.77,69.28-4.3,104.09-1.18,23.66,2.12,55.41,6.27,71.85,25.56A11.973,11.973,0,0,1,1443.33,171.583Z" transform="translate(230.506 -726)" fill="#9494d8"/>
    <path id="Trazado_657" data-name="Trazado 657" d="M1437.72,148.792c4.69,7,3.14,21.59,3.83,29.39-33-42.05-93.14-29.72-139.08-28.19-45.15,1.5-85-11.2-108.5-52-16.91-29.28-18.29-46.06-41.82-92.28,1.68,1.91,15.84-.18,18.81,0,5.57.28,8.51-5.08,10.63-.43,8.5,18.62,15.2,38,22.42,57.1,6.69,17.76,13.07,35.29,29,46.92,12.46,9.121,27.63,13.681,42.7,16.171,32.08,5.29,63.51-3.94,95.41-1.08,21.69,1.949,50.79,5.749,65.87,23.429A8.185,8.185,0,0,1,1437.72,148.792Z" transform="translate(230.506 -726)" fill="#56ccf2"/>
  </g>
</svg>
